# xmcd
#
# Track frame offsets:
#	150
#	20597
#	37214
#	54130
#	70080
#	84488
#	107460
#	124917
#	140127
#	158443
#	183354
#	203114
#	218351
#	243588
#
# Disc length: 3618 seconds
#
# Revision: 1
# Processed by: cddbd v1.5.2PL0 Copyright (c) Steve Scherf et al.
# Submitted via: audiograbber 1.83.01
#
DISCID=bb0e200e
DTITLE=Mary Chapin Carpenter - The Very Best Of Mary Chapin Carpenter
DYEAR=2012
DGENRE=Country
TTITLE0=Stones In The Road
TTITLE1=Shut Up And Kiss Me
TTITLE2=I Take My Chances
TTITLE3=I Feel Lucky
TTITLE4=Halley Came To Jackson
TTITLE5=I Am A Town
TTITLE6=Quittin' Time
TTITLE7=Down At The Twist And Shout
TTITLE8=He Thinks He'll Keep Her
TTITLE9=Only A Dream
TTITLE10=The Hard Way
TTITLE11=Passionate Kisses
TTITLE12=Late For Your Life
TTITLE13=10, 000 Miles
EXTD=
EXTT0=
EXTT1=
EXTT2=
EXTT3=
EXTT4=
EXTT5=
EXTT6=
EXTT7=
EXTT8=
EXTT9=
EXTT10=
EXTT11=
EXTT12=
EXTT13=
PLAYORDER=
